<svg viewBox="0 0 512 512" xmlns="http://www.w3.org/2000/svg" ><linearGradient id="linear-gradient" gradientUnits="userSpaceOnUse" x1="256" x2="256" y2="512"><stop offset="0" stop-color="#00afff"/><stop offset="1" stop-color="#0063ff"/></linearGradient><g id="Layer_2" ><g id="Layer_1_copy_5" ><g id="_26" ><g id="background"><rect fill="url(#linear-gradient)" height="512" rx="120.68" width="512"/></g><g fill="#fff"><path d="m400.84 285.84a21.15 21.15 0 0 0 -21.15 21.16v17.85a51.78 51.78 0 0 1 -51.69 51.72h-144a51.78 51.78 0 0 1 -51.72-51.72v-17.85a21.16 21.16 0 1 0 -42.28 0v17.85a94.14 94.14 0 0 0 94 94h144a94.14 94.14 0 0 0 94-94v-17.85a21.16 21.16 0 0 0 -21.16-21.16z"/><path d="m221.45 179.11 13.77-13.77v135.75a21.16 21.16 0 0 0 42.31 0v-135.75l13.39 13.39a21.16 21.16 0 0 0 29.92-29.92l-49.51-49.5c-.06-.07-.13-.13-.2-.2l-.29-.27q-.43-.41-.87-.78l-.16-.14c-.38-.3-.75-.59-1.14-.87l-.15-.11a22.27 22.27 0 0 0 -2.6-1.55 21.55 21.55 0 0 0 -2.92-1.21h-.09a21.72 21.72 0 0 0 -2.86-.71h-.29c-.45-.08-.91-.14-1.37-.18h-.09c-.42 0-.85-.06-1.28-.07h-.37c-.44 0-.89 0-1.34 0h-.13c-.42 0-.84.06-1.27.11h-.28a20.55 20.55 0 0 0 -2.81.56h-.13a20.56 20.56 0 0 0 -2.82 1 19.82 19.82 0 0 0 -2.65 1.41l-.13.07a21.38 21.38 0 0 0 -2.34 1.73l-.24.21c-.36.31-.72.64-1.06 1l-49.88 49.88a21.16 21.16 0 0 0 29.92 29.92z"/></g></g></g></g></svg>